<svg width="60" height="60" viewBox="0 0 60 60" fill="none" xmlns="http://www.w3.org/2000/svg">
<path d="M12.2573 55.2427L37.7573 31.2427L49.7573 43.2427M12.2573 55.2427H42.2573C47.2279 55.2427 51.2573 51.2132 51.2573 46.2427V31.2427M12.2573 55.2427C7.28676 55.2427 3.25732 51.2132 3.25732 46.2427V16.2427C3.25732 11.2721 7.28676 7.24267 12.2573 7.24267H31.7573M48.2573 21.7279L48.2573 13.2427M48.2573 13.2427L48.2573 4.75739M48.2573 13.2427L39.7721 13.2427M48.2573 13.2427L56.7426 13.2427M21.2573 20.7427C21.2573 23.2279 19.2426 25.2427 16.7573 25.2427C14.272 25.2427 12.2573 23.2279 12.2573 20.7427C12.2573 18.2574 14.272 16.2427 16.7573 16.2427C19.2426 16.2427 21.2573 18.2574 21.2573 20.7427Z" stroke="#AAAAAA" stroke-width="3" stroke-linecap="round" stroke-linejoin="round"/>
</svg>
